<mxfile host="app.diagrams.net" agent="Mozilla/5.0 (Windows NT 10.0; Win64; x64) AppleWebKit/537.36 (KHTML, like Gecko) Chrome/129.0.0.0 Safari/537.36" version="24.7.16">
  <diagram name="Page-1" id="cPiNi6je7MteDIaE5LHk">
    <mxGraphModel dx="3817" dy="2491" grid="1" gridSize="10" guides="1" tooltips="1" connect="1" arrows="1" fold="1" page="1" pageScale="1" pageWidth="850" pageHeight="1100" math="0" shadow="0">
      <root>
        <mxCell id="0" />
        <mxCell id="1" parent="0" />
        <mxCell id="7PMbfWhqQJrKJwIKkhmj-7" value="" style="whiteSpace=wrap;html=1;aspect=fixed;fillColor=#d5e8d4;strokeColor=#82b366;strokeWidth=5;dashed=1;" vertex="1" parent="1">
          <mxGeometry x="50" width="430" height="430" as="geometry" />
        </mxCell>
        <mxCell id="7PMbfWhqQJrKJwIKkhmj-9" style="edgeStyle=orthogonalEdgeStyle;rounded=0;orthogonalLoop=1;jettySize=auto;html=1;exitX=1;exitY=0.5;exitDx=0;exitDy=0;strokeWidth=3;" edge="1" parent="1" source="7PMbfWhqQJrKJwIKkhmj-2" target="7PMbfWhqQJrKJwIKkhmj-4">
          <mxGeometry relative="1" as="geometry" />
        </mxCell>
        <mxCell id="7PMbfWhqQJrKJwIKkhmj-10" style="edgeStyle=orthogonalEdgeStyle;rounded=0;orthogonalLoop=1;jettySize=auto;html=1;exitX=0.5;exitY=1;exitDx=0;exitDy=0;entryX=0.5;entryY=0;entryDx=0;entryDy=0;strokeWidth=3;" edge="1" parent="1" source="7PMbfWhqQJrKJwIKkhmj-2" target="7PMbfWhqQJrKJwIKkhmj-3">
          <mxGeometry relative="1" as="geometry" />
        </mxCell>
        <mxCell id="7PMbfWhqQJrKJwIKkhmj-2" value="&lt;font style=&quot;font-size: 14px;&quot;&gt;Kaggle Artwork Data&lt;/font&gt;&lt;div&gt;&lt;font size=&quot;3&quot;&gt;Kaggle Images&lt;/font&gt;&lt;/div&gt;" style="rounded=1;whiteSpace=wrap;html=1;strokeWidth=3;" vertex="1" parent="1">
          <mxGeometry x="100" y="40" width="120" height="150" as="geometry" />
        </mxCell>
        <mxCell id="7PMbfWhqQJrKJwIKkhmj-11" style="edgeStyle=orthogonalEdgeStyle;rounded=0;orthogonalLoop=1;jettySize=auto;html=1;exitX=1;exitY=0.5;exitDx=0;exitDy=0;strokeWidth=3;" edge="1" parent="1" source="7PMbfWhqQJrKJwIKkhmj-3" target="7PMbfWhqQJrKJwIKkhmj-5">
          <mxGeometry relative="1" as="geometry" />
        </mxCell>
        <mxCell id="7PMbfWhqQJrKJwIKkhmj-3" value="&lt;font style=&quot;font-size: 14px;&quot;&gt;Automated Webscraping of selected Websites&lt;/font&gt;" style="rounded=1;whiteSpace=wrap;html=1;strokeWidth=3;" vertex="1" parent="1">
          <mxGeometry x="100" y="230" width="120" height="150" as="geometry" />
        </mxCell>
        <mxCell id="7PMbfWhqQJrKJwIKkhmj-4" value="&lt;font style=&quot;font-size: 14px;&quot;&gt;Hugging Face Image&lt;/font&gt;&lt;div&gt;&lt;font size=&quot;3&quot;&gt;Data&lt;/font&gt;&lt;/div&gt;" style="rounded=1;whiteSpace=wrap;html=1;strokeWidth=3;" vertex="1" parent="1">
          <mxGeometry x="320" y="40" width="120" height="150" as="geometry" />
        </mxCell>
        <mxCell id="7PMbfWhqQJrKJwIKkhmj-5" value="&lt;font style=&quot;font-size: 14px;&quot;&gt;Kaggle text&lt;/font&gt;&lt;div&gt;&lt;font size=&quot;3&quot;&gt;Amazon Text&lt;/font&gt;&lt;/div&gt;" style="rounded=1;whiteSpace=wrap;html=1;strokeWidth=3;" vertex="1" parent="1">
          <mxGeometry x="320" y="230" width="120" height="150" as="geometry" />
        </mxCell>
        <mxCell id="7PMbfWhqQJrKJwIKkhmj-15" style="edgeStyle=orthogonalEdgeStyle;rounded=0;orthogonalLoop=1;jettySize=auto;html=1;exitX=1;exitY=0.5;exitDx=0;exitDy=0;exitPerimeter=0;entryX=0;entryY=0.25;entryDx=0;entryDy=0;spacing=5;strokeWidth=5;" edge="1" parent="1" source="7PMbfWhqQJrKJwIKkhmj-8" target="7PMbfWhqQJrKJwIKkhmj-14">
          <mxGeometry relative="1" as="geometry" />
        </mxCell>
        <mxCell id="7PMbfWhqQJrKJwIKkhmj-8" value="&lt;div style=&quot;text-align: center;&quot;&gt;&lt;font style=&quot;font-size: 14px;&quot;&gt;&lt;b&gt;ML Database&lt;/b&gt;&lt;/font&gt;&lt;/div&gt;&lt;font style=&quot;font-size: 14px;&quot;&gt;&lt;ul&gt;&lt;li&gt;&lt;font style=&quot;font-size: 14px;&quot;&gt;Supervised Learning Data&lt;/font&gt;&lt;/li&gt;&lt;li&gt;&lt;font size=&quot;3&quot;&gt;Legal Advisory Data&lt;/font&gt;&lt;/li&gt;&lt;li&gt;&lt;font size=&quot;3&quot;&gt;NLP corpus&lt;/font&gt;&lt;/li&gt;&lt;/ul&gt;&lt;/font&gt;" style="shape=cylinder3;whiteSpace=wrap;html=1;boundedLbl=1;backgroundOutline=1;size=15;fillColor=#dae8fc;strokeColor=#6c8ebf;strokeWidth=5;align=left;" vertex="1" parent="1">
          <mxGeometry x="560" y="70" width="140" height="270" as="geometry" />
        </mxCell>
        <mxCell id="7PMbfWhqQJrKJwIKkhmj-12" style="edgeStyle=orthogonalEdgeStyle;rounded=0;orthogonalLoop=1;jettySize=auto;html=1;exitX=1;exitY=0.5;exitDx=0;exitDy=0;entryX=-0.007;entryY=0.478;entryDx=0;entryDy=0;entryPerimeter=0;spacing=5;strokeWidth=5;" edge="1" parent="1" source="7PMbfWhqQJrKJwIKkhmj-4" target="7PMbfWhqQJrKJwIKkhmj-8">
          <mxGeometry relative="1" as="geometry" />
        </mxCell>
        <mxCell id="7PMbfWhqQJrKJwIKkhmj-13" style="edgeStyle=orthogonalEdgeStyle;rounded=0;orthogonalLoop=1;jettySize=auto;html=1;exitX=1;exitY=0.5;exitDx=0;exitDy=0;entryX=-0.029;entryY=0.667;entryDx=0;entryDy=0;entryPerimeter=0;spacing=5;strokeWidth=5;" edge="1" parent="1" source="7PMbfWhqQJrKJwIKkhmj-5" target="7PMbfWhqQJrKJwIKkhmj-8">
          <mxGeometry relative="1" as="geometry" />
        </mxCell>
        <mxCell id="7PMbfWhqQJrKJwIKkhmj-20" style="edgeStyle=orthogonalEdgeStyle;rounded=0;orthogonalLoop=1;jettySize=auto;html=1;exitX=0.5;exitY=0;exitDx=0;exitDy=0;entryX=0.5;entryY=0;entryDx=0;entryDy=0;strokeWidth=3;dashed=1;" edge="1" parent="1" source="7PMbfWhqQJrKJwIKkhmj-14" target="7PMbfWhqQJrKJwIKkhmj-17">
          <mxGeometry relative="1" as="geometry" />
        </mxCell>
        <mxCell id="7PMbfWhqQJrKJwIKkhmj-21" style="edgeStyle=orthogonalEdgeStyle;rounded=0;orthogonalLoop=1;jettySize=auto;html=1;exitX=0.5;exitY=1;exitDx=0;exitDy=0;entryX=0.5;entryY=1;entryDx=0;entryDy=0;strokeWidth=3;" edge="1" parent="1" source="7PMbfWhqQJrKJwIKkhmj-14" target="7PMbfWhqQJrKJwIKkhmj-17">
          <mxGeometry relative="1" as="geometry" />
        </mxCell>
        <mxCell id="7PMbfWhqQJrKJwIKkhmj-14" value="&lt;font style=&quot;font-size: 18px;&quot;&gt;&lt;b&gt;Data Wrangling &amp;amp; Data Preprocessing&lt;/b&gt;&lt;/font&gt;&lt;div&gt;&lt;div&gt;&lt;div&gt;&lt;ul&gt;&lt;li&gt;&lt;span style=&quot;font-size: 18px; background-color: initial;&quot;&gt;Data Cleaning&lt;/span&gt;&lt;/li&gt;&lt;li&gt;&lt;font style=&quot;font-size: 18px;&quot;&gt;Feature Engineering&lt;/font&gt;&lt;/li&gt;&lt;li&gt;&lt;font style=&quot;font-size: 18px;&quot;&gt;Text Embedding&lt;/font&gt;&lt;/li&gt;&lt;/ul&gt;&lt;/div&gt;&lt;/div&gt;&lt;/div&gt;" style="rounded=1;whiteSpace=wrap;html=1;fillColor=#e1d5e7;strokeColor=#9673a6;strokeWidth=5;" vertex="1" parent="1">
          <mxGeometry x="760" y="70" width="210" height="290" as="geometry" />
        </mxCell>
        <mxCell id="7PMbfWhqQJrKJwIKkhmj-16" style="edgeStyle=orthogonalEdgeStyle;rounded=0;orthogonalLoop=1;jettySize=auto;html=1;exitX=1;exitY=0;exitDx=0;exitDy=195;exitPerimeter=0;entryX=-0.014;entryY=0.852;entryDx=0;entryDy=0;entryPerimeter=0;spacing=5;strokeWidth=5;" edge="1" parent="1" source="7PMbfWhqQJrKJwIKkhmj-8" target="7PMbfWhqQJrKJwIKkhmj-14">
          <mxGeometry relative="1" as="geometry" />
        </mxCell>
        <mxCell id="7PMbfWhqQJrKJwIKkhmj-17" value="&lt;font style=&quot;font-size: 18px;&quot;&gt;&lt;b&gt;Model Training&lt;/b&gt;&lt;/font&gt;&lt;div&gt;&lt;ul&gt;&lt;li style=&quot;text-align: left;&quot;&gt;&lt;font style=&quot;font-size: 18px;&quot;&gt;Identifying the Primary model to work on.&lt;/font&gt;&lt;/li&gt;&lt;li style=&quot;text-align: left;&quot;&gt;&lt;font style=&quot;font-size: 18px;&quot;&gt;Adapting the data for the Model use case&lt;/font&gt;&lt;/li&gt;&lt;li style=&quot;text-align: left;&quot;&gt;&lt;font style=&quot;font-size: 18px;&quot;&gt;Training the model on Google Colab (T4 GPU)&lt;/font&gt;&lt;/li&gt;&lt;/ul&gt;&lt;/div&gt;" style="whiteSpace=wrap;html=1;aspect=fixed;fillColor=#f8cecc;strokeColor=#b85450;strokeWidth=5;" vertex="1" parent="1">
          <mxGeometry x="1080" y="85" width="260" height="260" as="geometry" />
        </mxCell>
        <mxCell id="7PMbfWhqQJrKJwIKkhmj-18" value="&lt;font style=&quot;font-size: 42px;&quot;&gt;aws&lt;/font&gt;&lt;div&gt;&lt;font style=&quot;font-size: 42px;&quot;&gt;Azure&lt;/font&gt;&lt;/div&gt;&lt;div&gt;&lt;font style=&quot;font-size: 42px; background-color: rgb(0, 255, 0);&quot;&gt;Singularitynet&lt;/font&gt;&lt;/div&gt;" style="ellipse;shape=cloud;whiteSpace=wrap;html=1;strokeColor=#b85450;fillColor=#f8cecc;strokeWidth=3;labelBackgroundColor=none;labelBorderColor=none;" vertex="1" parent="1">
          <mxGeometry x="1900" y="-40" width="420" height="470" as="geometry" />
        </mxCell>
        <mxCell id="7PMbfWhqQJrKJwIKkhmj-32" style="edgeStyle=orthogonalEdgeStyle;rounded=0;orthogonalLoop=1;jettySize=auto;html=1;exitX=0.75;exitY=0;exitDx=0;exitDy=0;entryX=1;entryY=0.5;entryDx=0;entryDy=0;strokeWidth=3;" edge="1" parent="1" source="7PMbfWhqQJrKJwIKkhmj-22" target="7PMbfWhqQJrKJwIKkhmj-30">
          <mxGeometry relative="1" as="geometry" />
        </mxCell>
        <mxCell id="7PMbfWhqQJrKJwIKkhmj-33" style="edgeStyle=orthogonalEdgeStyle;rounded=0;orthogonalLoop=1;jettySize=auto;html=1;exitX=0.75;exitY=1;exitDx=0;exitDy=0;entryX=1;entryY=0.75;entryDx=0;entryDy=0;strokeWidth=5;" edge="1" parent="1" source="7PMbfWhqQJrKJwIKkhmj-22" target="7PMbfWhqQJrKJwIKkhmj-26">
          <mxGeometry relative="1" as="geometry" />
        </mxCell>
        <mxCell id="7PMbfWhqQJrKJwIKkhmj-22" value="" style="rounded=1;whiteSpace=wrap;html=1;strokeWidth=5;fillColor=#ffe6cc;strokeColor=#d79b00;dashed=1;dashPattern=1 1;" vertex="1" parent="1">
          <mxGeometry x="1580" y="100" width="200" height="280" as="geometry" />
        </mxCell>
        <mxCell id="7PMbfWhqQJrKJwIKkhmj-23" value="&lt;font style=&quot;font-size: 18px;&quot;&gt;&lt;b&gt;Recommender System&lt;/b&gt;&lt;/font&gt;" style="rounded=1;whiteSpace=wrap;html=1;strokeWidth=5;" vertex="1" parent="1">
          <mxGeometry x="1600" y="140" width="160" height="60" as="geometry" />
        </mxCell>
        <mxCell id="7PMbfWhqQJrKJwIKkhmj-24" value="&lt;font style=&quot;font-size: 18px;&quot;&gt;&lt;b&gt;Legal advisory Model&lt;/b&gt;&lt;/font&gt;" style="rounded=1;whiteSpace=wrap;html=1;strokeWidth=5;" vertex="1" parent="1">
          <mxGeometry x="1600" y="250" width="160" height="60" as="geometry" />
        </mxCell>
        <mxCell id="7PMbfWhqQJrKJwIKkhmj-25" style="edgeStyle=orthogonalEdgeStyle;rounded=0;orthogonalLoop=1;jettySize=auto;html=1;exitX=1;exitY=0.5;exitDx=0;exitDy=0;entryX=0.009;entryY=0.407;entryDx=0;entryDy=0;entryPerimeter=0;strokeWidth=3;" edge="1" parent="1" source="7PMbfWhqQJrKJwIKkhmj-17" target="7PMbfWhqQJrKJwIKkhmj-22">
          <mxGeometry relative="1" as="geometry" />
        </mxCell>
        <mxCell id="7PMbfWhqQJrKJwIKkhmj-28" style="edgeStyle=orthogonalEdgeStyle;rounded=0;orthogonalLoop=1;jettySize=auto;html=1;exitX=1;exitY=0.5;exitDx=0;exitDy=0;strokeWidth=5;" edge="1" parent="1" source="7PMbfWhqQJrKJwIKkhmj-26" target="7PMbfWhqQJrKJwIKkhmj-22">
          <mxGeometry relative="1" as="geometry" />
        </mxCell>
        <mxCell id="7PMbfWhqQJrKJwIKkhmj-26" value="&lt;font style=&quot;font-size: 18px;&quot;&gt;Users&lt;/font&gt;" style="swimlane;whiteSpace=wrap;html=1;fillColor=#ffe6cc;strokeColor=#d79b00;strokeWidth=5;" vertex="1" parent="1">
          <mxGeometry x="1270" y="490" width="290" height="330" as="geometry">
            <mxRectangle x="1270" y="490" width="90" height="40" as="alternateBounds" />
          </mxGeometry>
        </mxCell>
        <mxCell id="7PMbfWhqQJrKJwIKkhmj-42" value="Contract Drafting using Regional Templates" style="whiteSpace=wrap;html=1;" vertex="1" parent="7PMbfWhqQJrKJwIKkhmj-26">
          <mxGeometry x="20" y="40" width="250" height="80" as="geometry" />
        </mxCell>
        <mxCell id="7PMbfWhqQJrKJwIKkhmj-43" value="&lt;span id=&quot;docs-internal-guid-5f3f7b3f-7fff-12d6-0b77-37caa3a1bd69&quot;&gt;&lt;span style=&quot;background-color: transparent; font-variant-numeric: normal; font-variant-east-asian: normal; font-variant-alternates: normal; font-variant-position: normal; vertical-align: baseline; white-space-collapse: preserve;&quot;&gt;&lt;font style=&quot;font-size: 14px;&quot; face=&quot;Helvetica&quot;&gt;Jurisdictional laws and regulations for IP management&lt;/font&gt;&lt;/span&gt;&lt;/span&gt;" style="whiteSpace=wrap;html=1;" vertex="1" parent="7PMbfWhqQJrKJwIKkhmj-26">
          <mxGeometry x="20" y="130" width="250" height="80" as="geometry" />
        </mxCell>
        <mxCell id="7PMbfWhqQJrKJwIKkhmj-44" value="Automatic IP Registration" style="whiteSpace=wrap;html=1;" vertex="1" parent="7PMbfWhqQJrKJwIKkhmj-26">
          <mxGeometry x="20" y="220" width="250" height="80" as="geometry" />
        </mxCell>
        <mxCell id="7PMbfWhqQJrKJwIKkhmj-31" style="edgeStyle=orthogonalEdgeStyle;rounded=0;orthogonalLoop=1;jettySize=auto;html=1;exitX=0.5;exitY=1;exitDx=0;exitDy=0;entryX=0.25;entryY=0;entryDx=0;entryDy=0;strokeWidth=5;" edge="1" parent="1" source="7PMbfWhqQJrKJwIKkhmj-30" target="7PMbfWhqQJrKJwIKkhmj-22">
          <mxGeometry relative="1" as="geometry" />
        </mxCell>
        <mxCell id="7PMbfWhqQJrKJwIKkhmj-30" value="&lt;font style=&quot;font-size: 18px;&quot;&gt;Management/Admin&lt;/font&gt;" style="swimlane;whiteSpace=wrap;html=1;startSize=23;fillColor=#ffe6cc;strokeColor=#d79b00;strokeWidth=5;" vertex="1" parent="1">
          <mxGeometry x="1260" y="-380" width="290" height="330" as="geometry" />
        </mxCell>
        <mxCell id="7PMbfWhqQJrKJwIKkhmj-41" value="&lt;font style=&quot;font-size: 14px;&quot;&gt;Prompt the model for artworks that would perform&amp;nbsp; well based on input features&amp;nbsp; based on performance on the platform&lt;/font&gt;" style="whiteSpace=wrap;html=1;" vertex="1" parent="7PMbfWhqQJrKJwIKkhmj-30">
          <mxGeometry x="10" y="40" width="270" height="90" as="geometry" />
        </mxCell>
        <mxCell id="7PMbfWhqQJrKJwIKkhmj-40" value="&lt;span style=&quot;font-size: 14px;&quot;&gt;Make Legal advisory for artworks that are uploaded to the platform&lt;/span&gt;" style="whiteSpace=wrap;html=1;" vertex="1" parent="7PMbfWhqQJrKJwIKkhmj-30">
          <mxGeometry x="10" y="150" width="270" height="80" as="geometry" />
        </mxCell>
        <mxCell id="7PMbfWhqQJrKJwIKkhmj-35" style="edgeStyle=orthogonalEdgeStyle;rounded=0;orthogonalLoop=1;jettySize=auto;html=1;exitX=1;exitY=0.5;exitDx=0;exitDy=0;exitPerimeter=0;strokeWidth=3;" edge="1" parent="1" source="7PMbfWhqQJrKJwIKkhmj-34">
          <mxGeometry relative="1" as="geometry">
            <mxPoint x="1250" y="-235.00000000000023" as="targetPoint" />
          </mxGeometry>
        </mxCell>
        <mxCell id="7PMbfWhqQJrKJwIKkhmj-36" style="edgeStyle=orthogonalEdgeStyle;rounded=0;orthogonalLoop=1;jettySize=auto;html=1;exitX=0.5;exitY=1;exitDx=0;exitDy=0;exitPerimeter=0;strokeWidth=5;" edge="1" parent="1" source="7PMbfWhqQJrKJwIKkhmj-34">
          <mxGeometry relative="1" as="geometry">
            <mxPoint x="640" y="60" as="targetPoint" />
          </mxGeometry>
        </mxCell>
        <mxCell id="7PMbfWhqQJrKJwIKkhmj-37" style="edgeStyle=orthogonalEdgeStyle;rounded=0;orthogonalLoop=1;jettySize=auto;html=1;exitX=0;exitY=0.5;exitDx=0;exitDy=0;exitPerimeter=0;entryX=0;entryY=0.5;entryDx=0;entryDy=0;strokeWidth=3;" edge="1" parent="1" source="7PMbfWhqQJrKJwIKkhmj-34" target="7PMbfWhqQJrKJwIKkhmj-3">
          <mxGeometry relative="1" as="geometry">
            <Array as="points">
              <mxPoint x="-10" y="-235" />
              <mxPoint x="-10" y="305" />
            </Array>
          </mxGeometry>
        </mxCell>
        <mxCell id="7PMbfWhqQJrKJwIKkhmj-34" value="&lt;font style=&quot;font-size: 18px;&quot;&gt;&lt;b&gt;Service Database&lt;/b&gt;&lt;/font&gt;" style="shape=cylinder3;whiteSpace=wrap;html=1;boundedLbl=1;backgroundOutline=1;size=15;fillColor=#dae8fc;strokeColor=#6c8ebf;strokeWidth=5;" vertex="1" parent="1">
          <mxGeometry x="570" y="-360" width="140" height="250" as="geometry" />
        </mxCell>
        <mxCell id="7PMbfWhqQJrKJwIKkhmj-46" value="&lt;font size=&quot;1&quot; style=&quot;&quot;&gt;&lt;b style=&quot;font-size: 39px;&quot;&gt;Google Colab&lt;/b&gt;&lt;/font&gt;" style="ellipse;shape=cloud;whiteSpace=wrap;html=1;strokeColor=#b85450;fillColor=#f8cecc;strokeWidth=3;" vertex="1" parent="1">
          <mxGeometry x="830" y="410" width="420" height="460" as="geometry" />
        </mxCell>
        <mxCell id="7PMbfWhqQJrKJwIKkhmj-48" style="edgeStyle=orthogonalEdgeStyle;rounded=0;orthogonalLoop=1;jettySize=auto;html=1;exitX=1;exitY=0.5;exitDx=0;exitDy=0;entryX=0.196;entryY=0.255;entryDx=0;entryDy=0;entryPerimeter=0;strokeWidth=5;" edge="1" parent="1" source="7PMbfWhqQJrKJwIKkhmj-23" target="7PMbfWhqQJrKJwIKkhmj-18">
          <mxGeometry relative="1" as="geometry" />
        </mxCell>
        <mxCell id="7PMbfWhqQJrKJwIKkhmj-49" style="edgeStyle=orthogonalEdgeStyle;rounded=0;orthogonalLoop=1;jettySize=auto;html=1;exitX=1;exitY=0.75;exitDx=0;exitDy=0;entryX=0.346;entryY=0.861;entryDx=0;entryDy=0;entryPerimeter=0;strokeWidth=5;" edge="1" parent="1" source="7PMbfWhqQJrKJwIKkhmj-24" target="7PMbfWhqQJrKJwIKkhmj-18">
          <mxGeometry relative="1" as="geometry" />
        </mxCell>
        <mxCell id="7PMbfWhqQJrKJwIKkhmj-50" style="edgeStyle=orthogonalEdgeStyle;rounded=0;orthogonalLoop=1;jettySize=auto;html=1;exitX=0.75;exitY=1;exitDx=0;exitDy=0;entryX=0.952;entryY=0.63;entryDx=0;entryDy=0;entryPerimeter=0;strokeWidth=5;dashed=1;" edge="1" parent="1" source="7PMbfWhqQJrKJwIKkhmj-17" target="7PMbfWhqQJrKJwIKkhmj-46">
          <mxGeometry relative="1" as="geometry" />
        </mxCell>
        <mxCell id="7PMbfWhqQJrKJwIKkhmj-52" style="edgeStyle=orthogonalEdgeStyle;rounded=0;orthogonalLoop=1;jettySize=auto;html=1;entryX=0.55;entryY=0.95;entryDx=0;entryDy=0;entryPerimeter=0;strokeWidth=5;dashed=1;exitX=1.011;exitY=0.912;exitDx=0;exitDy=0;exitPerimeter=0;" edge="1" parent="1" source="7PMbfWhqQJrKJwIKkhmj-22" target="7PMbfWhqQJrKJwIKkhmj-46">
          <mxGeometry relative="1" as="geometry">
            <mxPoint x="1780" y="380" as="sourcePoint" />
            <Array as="points">
              <mxPoint x="1800" y="355" />
              <mxPoint x="1800" y="940" />
              <mxPoint x="1061" y="940" />
            </Array>
          </mxGeometry>
        </mxCell>
      </root>
    </mxGraphModel>
  </diagram>
</mxfile>
